<svg xmlns="http://www.w3.org/2000/svg" version="1.1" xmlns:xlink="http://www.w3.org/1999/xlink" xmlns:svgjs="http://svgjs.dev/svgjs" width="164" height="50" viewBox="0 0 164 50">
<rect width="50" height="50" rx="10" fill="#ffffff"/>
<path d="M468.15663967950354 483.7857766400229L491.8624422299033 586.4913859591222L494.73409692698516 606.2706402502467L498.9829737747082 588.4546600887597L528.6372039119203 483.7857766400229L545.3396853133145 483.7857766400229L574.290653075731 588.4546600887597L578.393016928705 606.5929688386948L581.5870002142349 586.4034781622727L604.8825663793373 483.7857766400229L624.7497284673113 483.7857766400229L588.3852031705917 633.7857806641225L570.3641048164559 633.7857806641225L539.4498629244018 524.487086581315L537.0763524094668 513.0590729908874L534.7321444934817 524.487086581315L502.6751012423848 633.7857806641225L484.654002888249 633.7857806641225L448.37738538837885 483.7857766400229L468.15663967950354 483.7857766400229Z " fill="#ffffff" transform="matrix(0.33793201010363905,0,0,0.33793201010363905,0,111.1683982964639)"/><path d="M805.0736124798898 491.491444018L827.2582556805197 587.6066163520027L829.945641383439 606.1166709384368L833.921875331636 589.4439106591005L861.6732460597418 491.491444018L877.3039588216195 491.491444018L904.3971942755409 589.4439106591005L908.2363167082829 606.418316272438L911.2253477452033 587.5243494427295L933.0260787025591 491.491444018L951.6184001982663 491.491444018L917.5873220623184 631.8662135408986L900.7226056613451 631.8662135408986L871.7920759003257 529.5810230114179L869.5708693499537 518.8863248059226L867.3770851026726 529.5810230114179L837.3770855211037 631.8662135408986L820.5123691201304 631.8662135408986L786.5635578934555 491.491444018L805.0736124798898 491.491444018ZM987.185127307311 483.7857768494252L987.185127307311 540.1934543076402Q999.0589845457198 525.6322113663119 1018.0352182847012 525.6322113663119L1018.0352182847012 525.6322113663119Q1051.1065158124636 525.6322113663119 1051.4081611464649 562.9265435700904L1051.4081611464649 562.9265435700904L1051.4081611464649 631.8662135408986L1033.556241834215 631.8662135408986L1033.556241834215 562.8442766608173Q1033.473974924942 551.5462877873197 1028.4008488531044 546.1715163814811Q1023.3551450843578 540.7693226725514 1012.6604468788626 540.7693226725514L1012.6604468788626 540.7693226725514Q1003.9675767990112 540.7693226725514 997.413646360259 545.3762695918417Q990.8597159215067 550.0106388142231 987.185127307311 557.5243498611608L987.185127307311 557.5243498611608L987.185127307311 631.8662135408986L969.360630298152 631.8662135408986L969.360630298152 483.7857768494252L987.185127307311 483.7857768494252ZM1161.2070627228832 631.8662135408986L1142.5050520148118 631.8662135408986Q1140.9694030417152 628.7674932916141 1140.0096224335298 620.8698700014022L1140.0096224335298 620.8698700014022Q1127.5598968302095 633.7857747572696 1110.311268185962 633.7857747572696L1110.311268185962 633.7857747572696Q1094.8725115457212 633.7857747572696 1085.0004824329562 625.0654823743273Q1075.1284533201915 616.3451899913848 1075.1284533201915 602.9356837798791L1075.1284533201915 602.9356837798791Q1075.1284533201915 586.6468357438173 1087.4959120142387 577.6248980268738Q1099.890793011377 568.6303826130213 1122.349659242917 568.6303826130213L1122.349659242917 568.6303826130213L1139.7079770995285 568.6303826130213L1139.7079770995285 560.4311139888082Q1139.7079770995285 551.0801086347726 1134.1138272689618 545.5408034103878Q1128.5196774383949 540.0014981860031 1117.6330231112624 540.0014981860031L1117.6330231112624 540.0014981860031Q1108.0900616355898 540.0014981860031 1101.6458204092016 544.8004012269305Q1095.1741568797224 549.6267265709489 1095.1741568797224 556.4823023437023L1095.1741568797224 556.4823023437023L1077.2399706581996 556.4823023437023Q1077.2399706581996 548.6669459627633 1082.7792758825842 541.4000356436447Q1088.318581106969 534.1057030214351 1097.8341202795507 529.855246042328Q1107.3222371490415 525.6322113663119 1118.702492931812 525.6322113663119L1118.702492931812 525.6322113663119Q1136.718946062608 525.6322113663119 1146.947465115556 534.6267267801643Q1157.175984168504 543.6486644971078 1157.5598964117785 559.4713333806227L1157.5598964117785 559.4713333806227L1157.5598964117785 607.4877860929876Q1157.5598964117785 621.8296506095876 1161.2070627228832 630.3305645678017L1161.2070627228832 630.3305645678017L1161.2070627228832 631.8662135408986ZM1112.9163869796082 618.2647512077558L1112.9163869796082 618.2647512077558Q1121.3076117254584 618.2647512077558 1128.8213227723961 613.9320273193757Q1136.3350338193338 609.5993034309956 1139.7079770995285 602.6614607489691L1139.7079770995285 602.6614607489691L1139.7079770995285 581.2446420348874L1125.7226025231116 581.2446420348874Q1092.9529503293504 581.2446420348874 1092.9529503293504 600.4402541985969L1092.9529503293504 600.4402541985969Q1092.9529503293504 608.8314789444471 1098.5471001599171 613.5481150761016Q1104.1412499904839 618.2647512077558 1112.9163869796082 618.2647512077558ZM1191.8651975786363 502.2958314358594L1209.7171168908862 502.2958314358594L1209.7171168908862 527.5517725826828L1229.1869520855057 527.5517725826828L1229.1869520855057 541.3451910374627L1209.7171168908862 541.3451910374627L1209.7171168908862 606.0344040291639Q1209.7171168908862 612.2866891339149 1212.2948133814414 615.4402539893815Q1214.8999321750878 618.5663965417571 1221.1796395829297 618.5663965417571L1221.1796395829297 618.5663965417571Q1224.2509375291233 618.5663965417571 1229.653131238053 617.4146598119344L1229.653131238053 617.4146598119344L1229.653131238053 631.8662135408986Q1222.6330216467536 633.7857747572696 1215.9694019956373 633.7857747572696L1215.9694019956373 633.7857747572696Q1204.0132778479554 633.7857747572696 1197.9529488648413 626.5737090443329Q1191.8651975786363 619.3342210283054 1191.8651975786363 606.0344040291639L1191.8651975786363 606.0344040291639L1191.8651975786363 541.3451910374627L1172.888963839655 541.3451910374627L1172.888963839655 527.5517725826828L1191.8651975786363 527.5517725826828L1191.8651975786363 502.2958314358594ZM1359.6074255863664 604.1971097220658L1359.6074255863664 604.1971097220658Q1359.6074255863664 596.9576217060383 1354.1778095743457 592.9539654547502Q1348.720771259234 588.9777315065533 1335.1741535322733 586.0709673789058Q1321.6275358053126 583.1916255543495 1313.6750679089187 579.1331246968793Q1305.7226000125247 575.0746238394095 1301.9108998828738 569.4804740088427Q1298.0991997532228 563.8863241782758 1298.0991997532228 556.180657009701L1298.0991997532228 556.180657009701Q1298.0991997532228 543.3744414661977 1308.9584317772642 534.4896152647093Q1319.7902414982148 525.6322113663119 1336.682380202279 525.6322113663119L1336.682380202279 525.6322113663119Q1354.397187999074 525.6322113663119 1365.4483761447523 534.7912605987104Q1376.499564290431 543.950309831109 1376.499564290431 558.2099074384361L1376.499564290431 558.2099074384361L1358.5653780689079 558.2099074384361Q1358.5653780689079 550.8881525131354 1352.3405152672478 545.5956480165698Q1346.1156524655878 540.2757212169131 1336.682380202279 540.2757212169131L1336.682380202279 540.2757212169131Q1326.9474626049691 540.2757212169131 1321.4355796836753 544.5261781960203Q1315.9511190654728 548.7766351751275 1315.9511190654728 555.6047886447898L1315.9511190654728 555.6047886447898Q1315.9511190654728 562.076452174269 1321.0516674404014 565.3397062420995Q1326.1522158153298 568.6303826130213 1339.5068774206534 571.6194136499416Q1352.861539025977 574.6084446868622 1361.170496862554 578.7492124536052Q1369.4520323960403 582.8899802203482 1373.4556886473283 588.7309307787341Q1377.459344898616 594.5444590340292 1377.459344898616 602.9356837798791L1377.459344898616 602.9356837798791Q1377.459344898616 616.921058356296 1366.2710452374827 625.3671277083283Q1355.0827455763492 633.7857747572696 1337.2582485671905 633.7857747572696L1337.2582485671905 633.7857747572696Q1324.7262560545971 633.7857747572696 1315.0736053665603 629.3707839596163Q1305.4483769816147 624.9283708588721 1299.991338666503 616.9759029624781Q1294.5343003513913 609.0234350660842 1294.5343003513913 599.7546966213217L1294.5343003513913 599.7546966213217L1312.386219663641 599.7546966213217Q1312.8523988161883 608.7217897320832 1319.5708630734866 613.9868719255578Q1326.261905027694 619.2245318159412 1337.2582485671905 619.2245318159412L1337.2582485671905 619.2245318159412Q1347.3770784077742 619.2245318159412 1353.4922519970705 615.1386086553803Q1359.6074255863664 611.0526854948193 1359.6074255863664 604.1971097220658ZM1418.5105326258636 483.7857768494252L1418.5105326258636 540.1934543076402Q1430.3843898642724 525.6322113663119 1449.360623603254 525.6322113663119L1449.360623603254 525.6322113663119Q1482.4319211310165 525.6322113663119 1482.7335664650175 562.9265435700904L1482.7335664650175 562.9265435700904L1482.7335664650175 631.8662135408986L1464.8816471527675 631.8662135408986L1464.8816471527675 562.8442766608173Q1464.7993802434946 551.5462877873197 1459.726254171657 546.1715163814811Q1454.6805504029105 540.7693226725514 1443.9858521974152 540.7693226725514L1443.9858521974152 540.7693226725514Q1435.292982117564 540.7693226725514 1428.7390516788116 545.3762695918417Q1422.1851212400595 550.0106388142231 1418.5105326258636 557.5243498611608L1418.5105326258636 557.5243498611608L1418.5105326258636 631.8662135408986L1400.6860356167047 631.8662135408986L1400.6860356167047 483.7857768494252L1418.5105326258636 483.7857768494252ZM1504.6988312409192 580.0106383957918L1504.6988312409192 578.7492124536052Q1504.6988312409192 563.4201450257286 1510.7317379209424 551.1623755440455Q1516.7646446009653 538.9320283654536 1527.5141874126425 532.2684087143373Q1538.26373022432 525.6322113663119 1552.0571486790998 525.6322113663119L1552.0571486790998 525.6322113663119Q1573.3368558777263 525.6322113663119 1586.4995613614128 540.3854104292773Q1599.6622668450993 555.1386094922425 1599.6622668450993 579.6267261525177L1599.6622668450993 579.6267261525177L1599.6622668450993 580.8607297916133Q1599.6622668450993 596.1075303102168 1593.8487385898045 608.2007659733538Q1588.0077880314186 620.2940016364907 1577.1485560073772 627.0398881968802Q1566.316746286427 633.7857747572696 1552.2491048007369 633.7857747572696L1552.2491048007369 633.7857747572696Q1531.0242422082922 633.7857747572696 1517.861536724606 619.0325756943041Q1504.6988312409192 604.3067989344299 1504.6988312409192 580.0106383957918L1504.6988312409192 580.0106383957918ZM1522.6330174624422 580.8607297916133L1522.6330174624422 580.8607297916133Q1522.6330174624422 598.2190476482249 1530.6951745712001 608.7217897320832Q1538.7299093768672 619.2245318159412 1552.2491048007369 619.2245318159412L1552.2491048007369 619.2245318159412Q1565.8231448307886 619.2245318159412 1573.8304573333646 608.5846782166279Q1581.8377698359404 597.9174023142239 1581.8377698359404 578.7492124536052L1581.8377698359404 578.7492124536052Q1581.8377698359404 561.5828507186307 1573.6933458179094 550.9429971193174Q1565.5489217998784 540.2757212169131 1552.0571486790998 540.2757212169131L1552.0571486790998 540.2757212169131Q1538.8395985892314 540.2757212169131 1530.7500191773822 550.7784633007714Q1522.6330174624422 561.3086276877207 1522.6330174624422 580.8607297916133ZM1686.8103460683406 631.8662135408986L1686.4264338250664 621.5554275786774Q1676.033380953572 633.7857747572696 1655.877988181677 633.7857747572696L1655.877988181677 633.7857747572696Q1639.2052279023408 633.7857747572696 1630.4575132163077 624.1057017661417Q1621.7372208333652 614.4256287750138 1621.654953924092 595.4219727329414L1621.654953924092 595.4219727329414L1621.654953924092 527.5517725826828L1639.4794509332512 527.5517725826828L1639.4794509332512 594.9557935803944Q1639.4794509332512 618.64866345103 1658.7573300062338 618.64866345103L1658.7573300062338 618.64866345103Q1679.21436811213 618.64866345103 1685.9602546725189 603.4292852355175L1685.9602546725189 603.4292852355175L1685.9602546725189 527.5517725826828L1703.784751681678 527.5517725826828L1703.784751681678 631.8662135408986L1686.8103460683406 631.8662135408986ZM1750.2655554209457 483.7857768494252L1750.2655554209457 631.8662135408986L1732.4136361086962 631.8662135408986L1732.4136361086962 483.7857768494252L1750.2655554209457 483.7857768494252ZM1774.4520267472199 580.2025945174289L1774.4520267472199 578.8314793628783Q1774.4520267472199 554.8369641582415 1785.8322825299908 540.2208766107311Q1797.2125383127611 525.6322113663119 1815.6129036868313 525.6322113663119L1815.6129036868313 525.6322113663119Q1833.9310021516283 525.6322113663119 1844.6257003571238 538.1642038789051L1844.6257003571238 538.1642038789051L1844.6257003571238 483.7857768494252L1862.4776196693736 483.7857768494252L1862.4776196693736 631.8662135408986L1846.0790824209473 631.8662135408986L1845.2289910251259 620.6779138797651Q1834.5068705165397 633.7857747572696 1815.420947565194 633.7857747572696L1815.420947565194 633.7857747572696Q1797.2948052220343 633.7857747572696 1785.8871271361725 618.9503087850312Q1774.4520267472199 604.0874205097018 1774.4520267472199 580.2025945174289L1774.4520267472199 580.2025945174289ZM1792.2765237563788 580.8607297916133L1792.2765237563788 580.8607297916133Q1792.2765237563788 598.602959891499 1799.6257009847704 608.63952282281Q1806.947455910071 618.64866345103 1819.8633606659384 618.64866345103L1819.8633606659384 618.64866345103Q1836.8377662792757 618.64866345103 1844.6257003571238 603.4292852355175L1844.6257003571238 603.4292852355175L1844.6257003571238 555.5225217355166Q1836.6458101576388 540.7693226725514 1820.0553167875757 540.7693226725514L1820.0553167875757 540.7693226725514Q1806.947455910071 540.7693226725514 1799.6257009847704 550.8881525131354Q1792.2765237563788 561.0069823537194 1792.2765237563788 580.8607297916133ZM2006.609244715741 527.5517725826828L2031.3715844069263 607.2958299713505L2051.4172879664575 527.5517725826828L2069.2692072787067 527.5517725826828L2038.885295453864 631.8662135408986L2024.4337417248996 631.8662135408986L1999.0681113657122 552.8077137295063L1974.3880385838 631.8662135408986L1959.936484854836 631.8662135408986L1929.6622622423567 527.5517725826828L1947.4044923422427 527.5517725826828L1967.943797357412 605.6504917858895L1992.2399578960496 527.5517725826828L2006.609244715741 527.5517725826828ZM2130.6677438994866 633.7857747572696L2130.6677438994866 633.7857747572696Q2109.4703036101328 633.7857747572696 2096.1704866109912 619.8552447870345Q2082.8706696118497 605.9247148167997 2082.8706696118497 582.6157571894382L2082.8706696118497 582.6157571894382L2082.8706696118497 579.3250808185167Q2082.8706696118497 563.8040572690029 2088.7938870795087 551.6011323935018Q2094.7171045471678 539.4256298210918 2105.356958146481 532.5152094421563Q2116.024234048885 525.6322113663119 2128.446537349115 525.6322113663119L2128.446537349115 525.6322113663119Q2148.7938862426463 525.6322113663119 2160.0918751161435 539.0142952747265Q2171.3624416865505 552.4238014862322 2171.3624416865505 577.4055196021457L2171.3624416865505 577.4055196021457L2171.3624416865505 584.8095414367192L2100.695166621009 584.8095414367192Q2101.0790788642826 600.2482980769598 2109.717104337952 609.7364149464506Q2118.3277075085307 619.2245318159412 2131.627524507672 619.2245318159412L2131.627524507672 619.2245318159412Q2141.0882190740713 619.2245318159412 2147.6421495128243 615.3854093831994Q2154.1960799515764 611.5188646473664 2159.1046722048677 605.1568903302514L2159.1046722048677 605.1568903302514L2170.018748835091 613.6578042884655Q2156.910887957586 633.7857747572696 2130.6677438994866 633.7857747572696ZM2128.446537349115 540.2757212169131L2128.446537349115 540.2757212169131Q2117.6695722343457 540.2757212169131 2110.3478173090452 548.1459222040342Q2102.998640080654 555.9887008880639 2101.27103498592 570.1660315861179L2101.27103498592 570.1660315861179L2153.5379446773914 570.1660315861179L2153.5379446773914 568.8223387346584Q2152.742697887752 555.2208764015156 2146.188767449 547.7620099607599Q2139.634837010248 540.2757212169131 2128.446537349115 540.2757212169131ZM2284.1503742998893 633.7857747572696L2284.1503742998893 633.7857747572696Q2262.9529340105355 633.7857747572696 2249.653117011394 619.8552447870345Q2236.3258777091623 605.9247148167997 2236.3258777091623 582.6157571894382L2236.3258777091623 582.6157571894382L2236.3258777091623 579.3250808185167Q2236.3258777091623 563.8040572690029 2242.2765174799115 551.6011323935018Q2248.1997349475705 539.4256298210918 2258.8395885468835 532.5152094421563Q2269.5068644492885 525.6322113663119 2281.9291677495175 525.6322113663119L2281.9291677495175 525.6322113663119Q2302.276516643049 525.6322113663119 2313.547083213456 539.0142952747265Q2324.845072086953 552.4238014862322 2324.845072086953 577.4055196021457L2324.845072086953 577.4055196021457L2324.845072086953 584.8095414367192L2254.1777970214116 584.8095414367192Q2254.561709264686 600.2482980769598 2263.199734738355 609.7364149464506Q2271.8103379089334 619.2245318159412 2285.110154908075 619.2245318159412L2285.110154908075 619.2245318159412Q2294.570849474474 619.2245318159412 2301.124779913227 615.3854093831994Q2307.678710351979 611.5188646473664 2312.5873026052705 605.1568903302514L2312.5873026052705 605.1568903302514L2323.501379235494 613.6578042884655Q2310.3660960548987 633.7857747572696 2284.1503742998893 633.7857747572696ZM2281.9291677495175 540.2757212169131L2281.9291677495175 540.2757212169131Q2271.1522026347493 540.2757212169131 2263.803025406358 548.1459222040342Q2256.4812704810565 555.9887008880639 2254.7536653863226 570.1660315861179L2254.7536653863226 570.1660315861179L2306.993152774704 570.1660315861179L2306.993152774704 568.8223387346584Q2306.2253282881547 555.2208764015156 2299.6713978494026 547.7620099607599Q2293.1174674106505 540.2757212169131 2281.9291677495175 540.2757212169131ZM2428.5836446802577 631.8662135408986L2409.881633972187 631.8662135408986Q2408.3185626959985 628.7674932916141 2407.358782087814 620.8698700014022L2407.358782087814 620.8698700014022Q2394.9364787875847 633.7857747572696 2377.6604278402456 633.7857747572696L2377.6604278402456 633.7857747572696Q2362.2490935030964 633.7857747572696 2352.3496420872398 625.0654823743273Q2342.477612974475 616.3451899913848 2342.477612974475 602.9356837798791L2342.477612974475 602.9356837798791Q2342.477612974475 586.6468357438173 2354.872493971613 577.6248980268738Q2367.267374968752 568.6303826130213 2389.726241200292 568.6303826130213L2389.726241200292 568.6303826130213L2407.0845590569033 568.6303826130213L2407.0845590569033 560.4311139888082Q2407.0845590569033 551.0801086347726 2401.490409226337 545.5408034103878Q2395.8962593957694 540.0014981860031 2385.009605068637 540.0014981860031L2385.009605068637 540.0014981860031Q2375.439221289874 540.0014981860031 2368.994980063486 544.8004012269305Q2362.523316534006 549.6267265709489 2362.523316534006 556.4823023437023L2362.523316534006 556.4823023437023L2344.5891303124836 556.4823023437023Q2344.5891303124836 548.6669459627633 2350.155857839959 541.4000356436447Q2355.6951630643443 534.1057030214351 2365.1832799338345 529.855246042328Q2374.6713968033255 525.6322113663119 2386.0516525860958 525.6322113663119L2386.0516525860958 525.6322113663119Q2404.0955280199832 525.6322113663119 2414.2966247698405 534.6267267801643Q2424.525143822788 543.6486644971078 2424.9090560660625 559.4713333806227L2424.9090560660625 559.4713333806227L2424.9090560660625 607.4877860929876Q2424.9090560660625 621.8296506095876 2428.5836446802577 630.3305645678017L2428.5836446802577 630.3305645678017L2428.5836446802577 631.8662135408986ZM2380.265546633892 618.2647512077558L2380.265546633892 618.2647512077558Q2388.656771379742 618.2647512077558 2396.17048242668 613.9320273193757Q2403.7116157767086 609.5993034309956 2407.0845590569033 602.6614607489691L2407.0845590569033 602.6614607489691L2407.0845590569033 581.2446420348874L2393.0991844804867 581.2446420348874Q2360.329532286725 581.2446420348874 2360.329532286725 600.4402541985969L2360.329532286725 600.4402541985969Q2360.329532286725 608.8314789444471 2365.8962598142007 613.5481150761016Q2371.490409644768 618.2647512077558 2380.265546633892 618.2647512077558ZM2459.2417795360116 502.2958314358594L2477.06627654517 502.2958314358594L2477.06627654517 527.5517725826828L2496.5361117397897 527.5517725826828L2496.5361117397897 541.3451910374627L2477.06627654517 541.3451910374627L2477.06627654517 606.0344040291639Q2477.06627654517 612.2866891339149 2479.671395338816 615.4402539893815Q2482.2765141324626 618.5663965417571 2488.528799237214 618.5663965417571L2488.528799237214 618.5663965417571Q2491.6275194864984 618.5663965417571 2497.0297131954276 617.4146598119344L2497.0297131954276 617.4146598119344L2497.0297131954276 631.8662135408986Q2489.9821813010376 633.7857747572696 2483.3185616499213 633.7857747572696L2483.3185616499213 633.7857747572696Q2471.38985980533 633.7857747572696 2465.302108519126 626.5737090443329Q2459.2417795360116 619.3342210283054 2459.2417795360116 606.0344040291639L2459.2417795360116 606.0344040291639L2459.2417795360116 541.3451910374627L2440.2381234939385 541.3451910374627L2440.2381234939385 527.5517725826828L2459.2417795360116 527.5517725826828L2459.2417795360116 502.2958314358594ZM2556.1247763565625 592.350674786748L2538.2728570443123 592.350674786748Q2538.4648131659496 580.8607297916133 2540.8779758379587 574.224532443588Q2543.291138509968 567.5609127924718 2550.7225826476324 559.4713333806227L2550.7225826476324 559.4713333806227L2563.3368420694987 546.4457394123913Q2571.4538437844385 537.2866901799927 2571.4538437844385 526.7839480961345L2571.4538437844385 526.7839480961345Q2571.4538437844385 516.6651182555504 2566.1339169847824 510.93385690952863Q2560.8414124882165 505.17517326041576 2550.7225826476324 505.17517326041576L2550.7225826476324 505.17517326041576Q2540.8779758379587 505.17517326041576 2534.8999137641176 510.3854108477084Q2528.9218516902765 515.595648435001 2528.9218516902765 524.3707854241253L2528.9218516902765 524.3707854241253L2511.0973546811183 524.3707854241253Q2511.2893108027547 508.7674949653386 2522.230809736069 499.16968888348384Q2533.1723086693837 489.57188280162904 2550.7225826476324 489.57188280162904L2550.7225826476324 489.57188280162904Q2568.9309919000652 489.57188280162904 2579.1046663468314 499.3616450051209Q2589.2783407935976 509.15140720861274 2589.2783407935976 526.2080797312233L2589.2783407935976 526.2080797312233Q2589.2783407935976 543.0727961321966 2573.675050334811 559.4713333806227L2573.675050334811 559.4713333806227L2563.1448859478614 569.8643862521169Q2556.1247763565625 577.6797426330556 2556.1247763565625 592.350674786748L2556.1247763565625 592.350674786748ZM2537.505032557764 622.8991204301371L2537.505032557764 622.8991204301371Q2537.505032557764 618.5663965417571 2540.1649959575925 615.6322101110186Q2542.824959357421 612.6706013771891 2548.007774641622 612.6706013771891Q2553.2180122289146 612.6706013771891 2555.932820234925 615.6322101110186Q2558.6202059378447 618.5663965417571 2558.6202059378447 622.8991204301371Q2558.6202059378447 627.2318443185172 2555.932820234925 630.0837638399826Q2553.2180122289146 632.9356833614481 2548.007774641622 632.9356833614481Q2542.824959357421 632.9356833614481 2540.1649959575925 630.0837638399826Q2537.505032557764 627.2318443185172 2537.505032557764 622.8991204301371Z " fill="#3a5a40" transform="matrix(0.33793201010363905,0,0,0.33793201010363905,0,111.1683982964639)"/></g></svg>